<svg width="19" height="20" viewBox="0 0 19 20" fill="none" xmlns="http://www.w3.org/2000/svg">
<path d="M9.03425 0.24513L0.534254 4.71881C0.205702 4.89174 0 5.23245 0 5.60373V19C0 19.5523 0.447715 20 1 20H5.5C6.05228 20 6.5 19.5523 6.5 19V13C6.5 12.4477 6.94772 12 7.5 12H11.5C12.0523 12 12.5 12.4477 12.5 13V19C12.5 19.5523 12.9477 20 13.5 20H18C18.5523 20 19 19.5523 19 19V5.60373C19 5.23245 18.7943 4.89174 18.4657 4.71881L9.96575 0.24513C9.67421 0.0916873 9.32579 0.0916877 9.03425 0.24513Z" fill="white"/>
</svg>
