<svg width="14" height="14" viewBox="0 0 14 14" fill="none" xmlns="http://www.w3.org/2000/svg">
<path d="M1.5 7.86599C0.83333 7.48109 0.833329 6.51883 1.5 6.13393L11.7273 0.229216C12.3939 -0.155684 13.2273 0.325441 13.2273 1.09524L13.2273 12.9047C13.2273 13.6745 12.3939 14.1556 11.7273 13.7707L1.5 7.86599Z" fill="#8F8F8F"/>
<path d="M2.78469 12.9617C2.78469 13.514 2.33697 13.9617 1.78469 13.9617H1.46411C0.911826 13.9617 0.464111 13.514 0.464111 12.9617L0.464112 1.50239C0.464112 0.950101 0.911828 0.502385 1.46411 0.502385L1.78469 0.502385C2.33697 0.502385 2.78469 0.950101 2.78469 1.50239L2.78469 12.9617Z" fill="#8F8F8F"/>
</svg>
