<svg width="19" height="16" viewBox="0 0 19 16" fill="none" xmlns="http://www.w3.org/2000/svg">
<path d="M15.5928 13.4786C8.28985 13.4786 8.48723 2.52142 -2.23964e-05 2.52142" stroke="#8F8F8F" stroke-width="2"/>
<path d="M0 13.4786C7.30298 13.4786 7.10561 2.52142 15.5929 2.52142" stroke="#8F8F8F" stroke-width="2"/>
<path d="M17.8857 1.6554C18.5524 2.0403 18.5524 3.00255 17.8857 3.38745L16.4607 4.21017C15.794 4.59507 14.9607 4.11395 14.9607 3.34415L14.9607 1.6987C14.9607 0.928895 15.794 0.447771 16.4607 0.832671L17.8857 1.6554Z" fill="#8F8F8F"/>
<path d="M17.8857 12.6125C18.5524 12.9974 18.5524 13.9596 17.8857 14.3445L16.4607 15.1673C15.794 15.5522 14.9607 15.071 14.9607 14.3012L14.9607 12.6558C14.9607 11.886 15.794 11.4049 16.4607 11.7898L17.8857 12.6125Z" fill="#8F8F8F"/>
</svg>
